<svg xmlns="http://www.w3.org/2000/svg" viewBox="0 0 800 600" role="img"><title>online-frame</title><defs><marker id="arrow" viewBox="0 0 10 10" refX="8" refY="5" markerWidth="6" markerHeight="6" orient="auto-start-reverse"><path d="M0 0L10 5L0 10" fill="#58715f"/></marker></defs><rect width="800" height="600" fill="#fafaf7"/><rect x="110" y="115" width="580" height="355" rx="0" fill="#e7ece5" stroke="#292d2b" stroke-width="2"/><line x1="160" y1="438" x2="160" y2="170" stroke="#58715f" stroke-width="3" stroke-dasharray=""/><path d="M160 205 l-25 -28 M160 225 l27 -28" fill="none" stroke="#58715f" stroke-width="3" stroke-linecap="round" stroke-linejoin="round"/><path d="M160 265 l-25 -28 M160 285 l27 -28" fill="none" stroke="#58715f" stroke-width="3" stroke-linecap="round" stroke-linejoin="round"/><path d="M160 325 l-25 -28 M160 345 l27 -28" fill="none" stroke="#58715f" stroke-width="3" stroke-linecap="round" stroke-linejoin="round"/><path d="M160 385 l-25 -28 M160 405 l27 -28" fill="none" stroke="#58715f" stroke-width="3" stroke-linecap="round" stroke-linejoin="round"/><line x1="230" y1="438" x2="230" y2="170" stroke="#58715f" stroke-width="3" stroke-dasharray=""/><path d="M230 205 l-25 -28 M230 225 l27 -28" fill="none" stroke="#58715f" stroke-width="3" stroke-linecap="round" stroke-linejoin="round"/><path d="M230 265 l-25 -28 M230 285 l27 -28" fill="none" stroke="#58715f" stroke-width="3" stroke-linecap="round" stroke-linejoin="round"/><path d="M230 325 l-25 -28 M230 345 l27 -28" fill="none" stroke="#58715f" stroke-width="3" stroke-linecap="round" stroke-linejoin="round"/><path d="M230 385 l-25 -28 M230 405 l27 -28" fill="none" stroke="#58715f" stroke-width="3" stroke-linecap="round" stroke-linejoin="round"/><line x1="560" y1="438" x2="560" y2="170" stroke="#58715f" stroke-width="3" stroke-dasharray=""/><path d="M560 205 l-25 -28 M560 225 l27 -28" fill="none" stroke="#58715f" stroke-width="3" stroke-linecap="round" stroke-linejoin="round"/><path d="M560 265 l-25 -28 M560 285 l27 -28" fill="none" stroke="#58715f" stroke-width="3" stroke-linecap="round" stroke-linejoin="round"/><path d="M560 325 l-25 -28 M560 345 l27 -28" fill="none" stroke="#58715f" stroke-width="3" stroke-linecap="round" stroke-linejoin="round"/><path d="M560 385 l-25 -28 M560 405 l27 -28" fill="none" stroke="#58715f" stroke-width="3" stroke-linecap="round" stroke-linejoin="round"/><line x1="635" y1="438" x2="635" y2="170" stroke="#58715f" stroke-width="3" stroke-dasharray=""/><path d="M635 205 l-25 -28 M635 225 l27 -28" fill="none" stroke="#58715f" stroke-width="3" stroke-linecap="round" stroke-linejoin="round"/><path d="M635 265 l-25 -28 M635 285 l27 -28" fill="none" stroke="#58715f" stroke-width="3" stroke-linecap="round" stroke-linejoin="round"/><path d="M635 325 l-25 -28 M635 345 l27 -28" fill="none" stroke="#58715f" stroke-width="3" stroke-linecap="round" stroke-linejoin="round"/><path d="M635 385 l-25 -28 M635 405 l27 -28" fill="none" stroke="#58715f" stroke-width="3" stroke-linecap="round" stroke-linejoin="round"/><rect x="279.0625" y="80" width="241.875" height="430" rx="20" fill="none" stroke="#9b704b" stroke-width="2"/><text x="400" y="143" text-anchor="middle" fill="#9b704b" font-family="Arial,sans-serif" font-size="24">ATLAS</text><circle cx="400" cy="238" r="26" fill="#292d2b"/><rect x="358" y="273" width="84" height="104" rx="28" fill="#292d2b" stroke="none" stroke-width="2"/><rect x="260" y="394" width="280" height="34" rx="0" fill="#d5c7b5" stroke="none" stroke-width="2"/><text x="400" y="550" text-anchor="middle" fill="#58715f" font-family="Arial,sans-serif" font-size="17">PORTRAIT 9:16 · BRAND + PERSON + GREENERY</text><path d="M302 387V188 M302 250l-12 -22 M302 270l12 -22 M302 315l-12 -22 M302 335l12 -22" fill="none" stroke="#58715f" stroke-width="3"/><path d="M498 387V188 M498 250l-12 -22 M498 270l12 -22 M498 315l-12 -22 M498 335l12 -22" fill="none" stroke="#58715f" stroke-width="3"/></svg>