<svg xmlns="http://www.w3.org/2000/svg" viewBox="0 0 800 600" role="img"><title>planted-edge</title><defs><marker id="arrow" viewBox="0 0 10 10" refX="8" refY="5" markerWidth="6" markerHeight="6" orient="auto-start-reverse"><path d="M0 0L10 5L0 10" fill="#58715f"/></marker></defs><rect width="800" height="600" fill="#fafaf7"/><rect x="230" y="110" width="350" height="18" rx="0" fill="#292d2b" stroke="#292d2b" stroke-width="2"/><rect x="320" y="128" width="15" height="342" rx="0" fill="#dce4dc" stroke="#292d2b" stroke-width="2"/><line x1="170" y1="470" x2="650" y2="470" stroke="#292d2b" stroke-width="3" stroke-dasharray=""/><line x1="390" y1="465" x2="390" y2="240" stroke="#58715f" stroke-width="3" stroke-dasharray=""/><path d="M390 270 l-20 -25 M390 282 l22 -24" fill="none" stroke="#58715f" stroke-width="3" stroke-linecap="round" stroke-linejoin="round"/><path d="M390 320 l-20 -25 M390 332 l22 -24" fill="none" stroke="#58715f" stroke-width="3" stroke-linecap="round" stroke-linejoin="round"/><path d="M390 370 l-20 -25 M390 382 l22 -24" fill="none" stroke="#58715f" stroke-width="3" stroke-linecap="round" stroke-linejoin="round"/><path d="M390 420 l-20 -25 M390 432 l22 -24" fill="none" stroke="#58715f" stroke-width="3" stroke-linecap="round" stroke-linejoin="round"/><line x1="445" y1="465" x2="445" y2="240" stroke="#58715f" stroke-width="3" stroke-dasharray=""/><path d="M445 270 l-20 -25 M445 282 l22 -24" fill="none" stroke="#58715f" stroke-width="3" stroke-linecap="round" stroke-linejoin="round"/><path d="M445 320 l-20 -25 M445 332 l22 -24" fill="none" stroke="#58715f" stroke-width="3" stroke-linecap="round" stroke-linejoin="round"/><path d="M445 370 l-20 -25 M445 382 l22 -24" fill="none" stroke="#58715f" stroke-width="3" stroke-linecap="round" stroke-linejoin="round"/><path d="M445 420 l-20 -25 M445 432 l22 -24" fill="none" stroke="#58715f" stroke-width="3" stroke-linecap="round" stroke-linejoin="round"/><line x1="500" y1="465" x2="500" y2="240" stroke="#58715f" stroke-width="3" stroke-dasharray=""/><path d="M500 270 l-20 -25 M500 282 l22 -24" fill="none" stroke="#58715f" stroke-width="3" stroke-linecap="round" stroke-linejoin="round"/><path d="M500 320 l-20 -25 M500 332 l22 -24" fill="none" stroke="#58715f" stroke-width="3" stroke-linecap="round" stroke-linejoin="round"/><path d="M500 370 l-20 -25 M500 382 l22 -24" fill="none" stroke="#58715f" stroke-width="3" stroke-linecap="round" stroke-linejoin="round"/><path d="M500 420 l-20 -25 M500 432 l22 -24" fill="none" stroke="#58715f" stroke-width="3" stroke-linecap="round" stroke-linejoin="round"/><path d="M650 200 L345 270" fill="none" stroke="#58715f" stroke-width="2" stroke-linecap="round" stroke-linejoin="round" marker-end="url(#arrow)"/><path d="M650 270 L345 340" fill="none" stroke="#58715f" stroke-width="2" stroke-linecap="round" stroke-linejoin="round" marker-end="url(#arrow)"/><path d="M650 340 L345 410" fill="none" stroke="#58715f" stroke-width="2" stroke-linecap="round" stroke-linejoin="round" marker-end="url(#arrow)"/><text x="205" y="250" text-anchor="middle" fill="#292d2b" font-family="Arial,sans-serif" font-size="16">INTERIOR</text><text x="460" y="520" text-anchor="middle" fill="#58715f" font-family="Arial,sans-serif" font-size="17">PLANTING</text><text x="310" y="80" text-anchor="middle" fill="#292d2b" font-family="Arial,sans-serif" font-size="17">FILTERED GLASS</text><text x="628" y="158" text-anchor="middle" fill="#292d2b" font-family="Arial,sans-serif" font-size="16">DAYLIGHT</text><text x="400" y="565" text-anchor="middle" fill="#58715f" font-family="Arial,sans-serif" font-size="17">LIGHT + LIFE → AN ENERGY BRAND NARRATIVE</text></svg>